<?xml version="1.0" encoding="utf-8" ?><svg xmlns="http://www.w3.org/2000/svg" xmlns:xlink="http://www.w3.org/1999/xlink" width="1423" height="1400" viewBox="0 0 1423 1400"><clipPath id="cl_5"><rect width="1423.0001" height="1400"/></clipPath><g clip-path="url(#cl_5)"><path fill="#080A0D" transform="matrix(1.39237 0 0 1.39303 -55.6947 -11.1443)" d="M0 0L1099 0L1099 1024L0 1024L0 0Z"/><path fill="#5FD2C7" transform="matrix(1.39237 0 0 1.39303 -55.6947 -11.1443)" d="M324.11 184.878C331.002 168.397 336.309 157.337 349.279 144.308C369.358 124.137 395.165 114.003 423.402 113.845C448.9 113.675 473.41 123.697 491.486 141.684C528.931 179.13 521.129 224.73 521.585 272.691L521.588 456.039C521.842 458.239 521.703 459.214 523.062 460.806C523.038 463.679 522.31 470.594 521.041 473.046C520.526 477.602 521.586 488.554 518.951 492.145C516.08 482.226 515.875 478.585 508.829 470.918C505.147 470.285 502.312 469.666 499.014 472.16C491.215 478.059 489.246 493.229 485.552 502.327C474.858 502.16 464.139 502.123 453.442 502.104C443.56 502.087 415.072 497.795 415.872 513.914C416.014 517.186 417.469 520.263 419.909 522.448C421.678 524.013 423.951 524.922 426.279 525.109C449.944 527.009 474.388 525.953 497.971 525.857L503.727 519.513C505.003 523.43 509.162 535.574 509.69 539.299C511.398 542.952 513.076 548.144 514.458 552.039C516.487 553.362 519.206 554.865 521.342 556.118C522.804 597.352 521.685 644.717 521.642 686.251L521.616 744.169C521.691 768.864 523.65 801.536 516.075 824.67C506.577 853.672 487.462 876.137 460.08 889.691C432.175 903.297 399.977 905.136 370.704 894.796C346.238 886.292 325.382 869.736 311.547 847.836C307.348 841.171 303.579 833.085 300.112 825.921C294.143 826.409 289.545 826.602 283.509 826.25C251.766 824.706 222.033 810.251 201.21 786.24C182.899 765.421 173.684 740.237 173.488 712.582C173.44 705.755 174.08 698.079 174.536 691.202C159.612 683.596 143.446 671.847 132.457 659.35C110.225 634.108 98.9771 601.04 101.206 567.475C103.372 535.237 115.418 509.856 138.49 487.473C144.857 481.296 151.996 475.577 158.719 469.717C147.552 432.957 144.069 400.516 162.133 364.516C176.079 336.722 195.401 321.923 221.176 306.169C217.487 281.51 224.096 250.172 239.339 230.425C264.806 197.432 285.691 190.65 324.11 184.878Z"/><path fill="#FCFDFC" transform="matrix(1.39237 0 0 1.39303 -55.6947 -11.1443)" d="M324.11 184.878C331.002 168.397 336.309 157.337 349.279 144.308C369.358 124.137 395.165 114.003 423.402 113.845C448.9 113.675 473.41 123.697 491.486 141.684C528.931 179.13 521.129 224.73 521.585 272.691L521.588 456.039C521.842 458.239 521.703 459.214 523.062 460.806C523.038 463.679 522.31 470.594 521.041 473.046C520.526 477.602 521.586 488.554 518.951 492.145C516.08 482.226 515.875 478.585 508.829 470.918C507.748 464.841 508.113 456.489 508.119 450.197L508.18 417.883L508.185 286.968C508.174 278.184 508.191 269.442 508.213 260.588C508.316 217.549 513.226 172.535 473.388 144.031C453.06 129.487 432.379 124.185 407.525 128.148C384.342 131.962 363.613 144.802 349.87 163.859C341.666 175.184 338.259 188.723 331.779 197.782C323.598 199.973 314.39 199.432 305.764 200.974C281.258 205.354 260.04 221.675 246.923 242.503C233.279 265.21 231.855 287.848 235.526 313.473C226.466 318.664 216.183 324.219 207.834 330.313C187.836 345.031 173.326 366.005 166.604 389.91C158.21 420.657 164.763 445.074 174.926 473.77C166.327 481.846 156.605 488.136 148.159 496.099C105.917 535.927 102.984 609.349 143.126 651.682C157.358 666.691 172.143 674.454 189.613 684.257C188.849 692.567 187.244 701.383 186.916 709.576C185.962 733.419 195.02 757.649 210.299 775.817C228.224 797.25 250.465 810.024 278.577 812.247C288.988 813.071 297.742 812.192 308.075 811.454C313.686 820.444 316.734 830.001 321.928 838.922C351.564 889.828 416.102 902.017 464.473 871.84C485.062 858.722 499.611 837.976 504.934 814.148C509.468 794 508.337 753.029 508.36 730.92L508.518 635.023C508.41 621.966 506.37 545.282 509.69 539.299C511.398 542.952 513.076 548.144 514.458 552.039C516.487 553.362 519.206 554.865 521.342 556.118C522.804 597.352 521.685 644.717 521.642 686.251L521.616 744.169C521.691 768.864 523.65 801.536 516.075 824.67C506.577 853.672 487.462 876.137 460.08 889.691C432.175 903.297 399.977 905.136 370.704 894.796C346.238 886.292 325.382 869.736 311.547 847.836C307.348 841.171 303.579 833.085 300.112 825.921C294.143 826.409 289.545 826.602 283.509 826.25C251.766 824.706 222.033 810.251 201.21 786.24C182.899 765.421 173.684 740.237 173.488 712.582C173.44 705.755 174.08 698.079 174.536 691.202C159.612 683.596 143.446 671.847 132.457 659.35C110.225 634.108 98.9771 601.04 101.206 567.475C103.372 535.237 115.418 509.856 138.49 487.473C144.857 481.296 151.996 475.577 158.719 469.717C147.552 432.957 144.069 400.516 162.133 364.516C176.079 336.722 195.401 321.923 221.176 306.169C217.487 281.51 224.096 250.172 239.339 230.425C264.806 197.432 285.691 190.65 324.11 184.878Z"/><path fill="#051212" transform="matrix(1.39237 0 0 1.39303 -55.6947 -11.1443)" d="M521.588 456.039C521.842 458.239 521.703 459.214 523.062 460.806C523.038 463.679 522.31 470.594 521.041 473.046C521.106 467.511 521.399 461.602 521.588 456.039Z"/><path fill="#5FD2C7" transform="matrix(1.39237 0 0 1.39303 -55.6947 -11.1443)" d="M579.046 502.438L578.983 299.623L578.929 247.678C578.631 206.709 576.177 173.696 607.756 141.873C625.443 123.772 649.689 113.58 674.995 113.611C702.333 113.837 728.457 124.937 747.597 144.461C757.505 154.497 767.977 170.651 772.193 184.328C805.397 190.151 834.342 198.54 855.731 227.879C871.714 249.802 876.681 279.63 874.716 306.435C905.593 321.411 928.772 346.546 940.007 379.052C947.381 400.788 948.593 424.142 943.507 446.525C941.836 454.116 939.199 462.024 937.256 469.613C943.612 474.532 949.934 479.26 955.775 484.791C977.411 504.97 991.191 532.168 994.665 561.55C998.642 593.042 987.95 628.344 968.709 653.58C954.77 671.862 940.928 680.251 921.53 691.28C926.495 722.734 918.693 754.867 899.856 780.54C881.457 804.983 854.142 821.16 823.866 825.545C813.172 827.054 807.128 826.85 796.63 825.656C792.249 834.025 787.411 843.773 782.279 851.549C768.179 872.786 747.265 888.585 722.985 896.34C694.463 905.416 663.502 902.762 636.941 888.962C611.519 875.569 592.509 852.561 584.15 825.066C577.775 804.716 578.953 778.148 578.959 756.579L579.039 703.694L578.909 551.427C579.658 543.711 578.622 533.795 580.317 525.916L590.612 525.957L604.599 525.933C614.512 537.597 627.614 556.238 636.988 568.809L683.295 630.618C696.609 648.472 709.442 666.131 723.644 683.361C729.608 680.519 732.619 681.228 739.033 681.918C748.56 666.857 757.267 651.303 766.453 636.065C769.679 630.712 776.935 617.581 780.618 613.636C741.985 593.058 703.181 572.8 664.211 552.865C645.844 543.311 630.574 536.831 612.329 525.657C621.782 525.17 622.116 525.231 630.791 529.774C663.831 547.074 697.316 563.567 730.321 580.937C747.848 590.161 764.945 599.924 782.848 608.438C792.881 588.925 812.306 557.206 824.847 539.883C820.639 535.751 818.338 532.252 816.857 526.524C809.99 526.541 802.351 525.686 795.42 525.296C782.133 524.549 768.793 523.481 755.486 523.164C755.152 524.108 754.8 525.046 754.429 525.976C748.502 540.707 729.858 542.541 721.844 528.732C720.304 526.077 719.416 523.493 718.368 520.623C708.477 520.593 697.838 519.834 687.867 519.382L689.298 513.627C698.883 514.799 709.579 515.043 719.254 515.196C724.359 502.331 729.31 500.033 742.878 501.761C749.258 489.064 805.27 382.616 804.704 378.551C801.466 376.102 798.352 378.665 794.492 381.123C779.36 390.757 764.633 401.361 749.672 411.298L660.103 470.694C650.017 477.506 639.968 484.372 629.956 491.292C625.376 494.477 620.193 498.451 615.417 501.236C613.172 502.546 607.637 502.383 604.816 502.431C612.003 496.541 621.109 490.82 628.884 485.583C642.328 476.442 655.831 467.389 669.394 458.425L799.198 370.895C798.476 366.563 798.224 363.759 798.237 359.408L674.763 318.511C668.658 327.259 664.352 328.616 654.065 329.178C648.787 341.33 641.613 366.971 637.277 380.61C627.891 410.362 618.228 440.025 608.288 469.597C605.619 477.781 601.143 489.233 599.596 497.765C599.367 499.029 600.86 499.978 599.598 501.914C597.128 502.806 594.222 502.506 591.519 502.465C587.404 502.446 583.147 502.368 579.046 502.438Z"/><path fill="#FCFDFC" transform="matrix(1.39237 0 0 1.39303 -55.6947 -11.1443)" d="M579.046 502.438L578.983 299.623L578.929 247.678C578.631 206.709 576.177 173.696 607.756 141.873C625.443 123.772 649.689 113.58 674.995 113.611C702.333 113.837 728.457 124.937 747.597 144.461C757.505 154.497 767.977 170.651 772.193 184.328C805.397 190.151 834.342 198.54 855.731 227.879C871.714 249.802 876.681 279.63 874.716 306.435C905.593 321.411 928.772 346.546 940.007 379.052C947.381 400.788 948.593 424.142 943.507 446.525C941.836 454.116 939.199 462.024 937.256 469.613C943.612 474.532 949.934 479.26 955.775 484.791C977.411 504.97 991.191 532.168 994.665 561.55C998.642 593.042 987.95 628.344 968.709 653.58C954.77 671.862 940.928 680.251 921.53 691.28C926.495 722.734 918.693 754.867 899.856 780.54C881.457 804.983 854.142 821.16 823.866 825.545C813.172 827.054 807.128 826.85 796.63 825.656C792.249 834.025 787.411 843.773 782.279 851.549C768.179 872.786 747.265 888.585 722.985 896.34C694.463 905.416 663.502 902.762 636.941 888.962C611.519 875.569 592.509 852.561 584.15 825.066C577.775 804.716 578.953 778.148 578.959 756.579L579.039 703.694L578.909 551.427C579.658 543.711 578.622 533.795 580.317 525.916L590.612 525.957C590.906 529.871 591.771 547.235 592.3 549.854L592.249 672.557C592.225 692.722 593.103 717.14 592.269 736.915C591.851 739.438 592.216 749.497 592.5 752.245C592.288 763.325 592.303 774.408 592.547 785.488C592.389 789.023 592.231 794.421 592.803 797.916C593.929 808.432 595.277 816.423 598.666 826.596C599.345 827.976 600.275 830.047 601.154 831.206C603.837 829.82 632.204 823.82 638.08 822.2C649.145 838.035 663.683 838.995 674.814 822.391C695.293 828.484 716.393 833.463 736.974 839.105C743.002 840.757 764.91 845.62 768.89 848.094C770.826 846.108 771.299 845.319 772.79 842.95C778.398 833.459 782.787 818.078 789.211 811.541C795.49 811.335 803.397 812.118 809.649 812.795C819.917 814.253 838.868 809.907 847.875 804.979L843.359 801.148C848.225 791.316 853.954 781.69 859.371 772.14L879.355 736.621L893.78 711.395C896.483 706.692 900.134 699.964 903.169 695.755C905 695.278 906.63 696.016 908.481 696.575C908.432 694.38 907.103 687.593 906.674 685.092C916.287 676.487 945.035 665.771 949.903 655.504C969.214 638.758 977.978 609.78 981.531 585.33C982.116 581.103 982.017 576.769 982.037 572.495C982.039 572.073 982.034 571.651 982.022 571.23C980.821 537.607 966.224 513.061 942.44 490.555C940.899 488.896 939.5 487.971 937.694 486.635C930.791 482.504 927.695 480.088 921.824 474.582C923.888 463.921 928.624 449.382 931.363 437.961C932.323 433.476 932.587 431.264 932.927 426.665C933.082 419.768 932.803 412.733 932.618 405.825C932.316 402.479 932.098 401.051 931.332 397.761C923.619 369.436 911.445 345.904 886.432 328.566C878.893 323.341 868.559 318.815 861.506 313.438L860.869 312.947C861.67 305.886 861.894 297.902 862.332 290.708C862.971 284.404 859.191 263.649 856.121 258.04C852.262 248.239 846.896 239.102 840.217 230.957C819.509 205.802 794.405 201.27 764.425 198.493C759.717 190.046 757.758 184.82 754.452 175.872C751.403 168.964 742.484 156.151 736.17 151.665C727.415 144.615 722.617 141.26 712.761 136.425C710.085 134.035 702.898 131.769 699.525 130.683C665.819 124.313 638.185 127.721 614.007 154.391C612.607 156.173 610.967 158.156 609.669 159.979C598.088 177.625 595.994 183.501 592.654 204.602C591.736 216.723 592.095 230.541 592.432 242.749C592.826 270.096 593.146 295.761 592.378 323.169C592.323 325.165 592.158 327.919 592.366 329.838C592.905 363.592 592.547 398.425 592.582 432.258L592.546 472.139C592.522 478.714 592.714 487.997 592.207 494.406C591.599 496.293 591.605 500.316 591.519 502.465C587.404 502.446 583.147 502.368 579.046 502.438Z"/><path fill="#080A0D" transform="matrix(1.39237 0 0 1.39303 -55.6947 -11.1443)" d="M601.154 831.206C603.837 829.82 632.204 823.82 638.08 822.2C649.145 838.035 663.683 838.995 674.814 822.391C695.293 828.484 716.393 833.463 736.974 839.105C743.002 840.757 764.91 845.62 768.89 848.094C757.649 860.934 750.674 868.671 735.252 876.722C711.714 888.907 684.319 891.308 659.02 883.404C630.001 874.208 614.629 857.325 601.154 831.206Z"/><path fill="#080A0D" transform="matrix(1.39237 0 0 1.39303 -55.6947 -11.1443)" d="M843.359 801.148C848.225 791.316 853.954 781.69 859.371 772.14L879.355 736.621L893.78 711.395C896.483 706.692 900.134 699.964 903.169 695.755C905 695.278 906.63 696.016 908.481 696.575C908.59 700.769 908.646 704.993 908.744 709.183C909.772 753.059 887.18 785.88 847.875 804.979L843.359 801.148Z"/><path fill="#080A0D" transform="matrix(1.39237 0 0 1.39303 -55.6947 -11.1443)" d="M674.097 809.303C689.383 800.199 705.094 792.297 720.761 783.887L784.706 749.205L861.587 707.475C867.773 704.113 890.579 690.487 895.553 690.024C896.613 690.679 896.528 690.646 897.056 691.787C894.512 699.343 883.985 716.85 879.599 724.819C866.144 749.406 852.487 773.881 838.629 798.242C824.448 796.84 820.397 799.138 813.545 811.472C812.786 812.836 811.015 812.686 809.649 812.795C803.397 812.118 795.49 811.335 789.211 811.541C782.787 818.078 778.398 833.459 772.79 842.95C760.667 839.23 747.892 836.581 735.701 833.119C715.381 827.347 695.916 822.207 675.309 817.601C675.117 814.294 674.746 812.539 674.097 809.303Z"/><path fill="#080A0D" transform="matrix(1.39237 0 0 1.39303 -55.6947 -11.1443)" d="M850.455 513.293C861.587 504.23 926.721 438.842 931.363 437.961C928.624 449.382 923.888 463.921 921.824 474.582C927.695 480.088 930.791 482.504 937.694 486.635C936.468 496.187 933.85 508.623 932.26 518.583L916.799 617.272C914.719 630.84 911.795 645.654 910.221 659.102L904.135 659.74C893.73 636.242 882.829 614.192 871.233 591.289C863.208 575.438 855.236 555.937 846.322 540.796C855.75 532.288 856.084 524.179 850.455 513.293Z"/><path fill="#080A0D" transform="matrix(1.39237 0 0 1.39303 -55.6947 -11.1443)" d="M834.015 372.002C841.852 373.807 851.07 377.236 858.816 379.747C873.842 384.519 888.798 389.51 903.679 394.718C907.808 396.157 931.129 403.363 932.618 405.825C932.803 412.733 933.082 419.768 932.927 426.665C923.497 437.56 911.657 448.518 901.099 458.503C882.964 475.654 864.991 492.281 847.162 509.781C842.636 506.966 841.464 506.577 836.217 505.953C835.374 490.899 832.664 472.071 830.927 456.954C828.228 431.766 825.375 406.594 822.37 381.44C828.512 378.785 830.195 377.181 834.015 372.002Z"/><path fill="#080A0D" transform="matrix(1.39237 0 0 1.39303 -55.6947 -11.1443)" d="M745.427 187.326C749.103 183.562 751.414 180.152 754.452 175.872C757.758 184.82 759.717 190.046 764.425 198.493C794.405 201.27 819.509 205.802 840.217 230.957C846.896 239.102 852.262 248.239 856.121 258.04C853.702 269.314 852.234 273.343 859.214 283.198C847.251 304.517 836.045 321.745 825.114 344.37C821.072 344.379 816.925 344.501 812.874 344.573C810.063 336.587 804.41 324.67 800.877 316.48L775.335 257.587C769.059 242.966 762.867 228.308 756.76 213.615C753.593 206.012 749.063 194.352 745.427 187.326Z"/><path fill="#080A0D" transform="matrix(1.39237 0 0 1.39303 -55.6947 -11.1443)" d="M916.739 660.155C916.926 653.273 917.516 646.407 918.506 639.593C921.498 618.093 925.618 598.052 929.023 576.819L937.088 525.211C937.808 520.402 941.212 492.887 942.44 490.555C966.224 513.061 980.821 537.607 982.022 571.23C982.034 571.651 982.039 572.073 982.037 572.495C972.883 586.212 961.986 601.208 952.364 614.687C943.571 627.006 927.36 649.842 916.739 660.155Z"/><path fill="#080A0D" transform="matrix(1.39237 0 0 1.39303 -55.6947 -11.1443)" d="M592.366 329.838C599.692 326.838 632.815 318 640.031 316.745C642.606 321.97 644.182 323.695 648.551 327.677C638.484 358.696 627.877 389.578 618.029 420.639L605.429 460.257C603.588 466.162 595.781 493.465 592.804 495.553C592.212 494.797 592.38 495.194 592.207 494.406C592.714 487.997 592.522 478.714 592.546 472.139L592.582 432.258C592.547 398.425 592.905 363.592 592.366 329.838Z"/><path fill="#080A0D" transform="matrix(1.39237 0 0 1.39303 -55.6947 -11.1443)" d="M828.726 347.588C832.149 341.979 836.164 335.368 839.141 329.912C842.876 323.066 857.582 295.344 862.332 290.708C861.894 297.902 861.67 305.886 860.869 312.947L861.506 313.438C868.559 318.815 878.893 323.341 886.432 328.566C911.445 345.904 923.619 369.436 931.332 397.761C929.58 398.181 921.383 394.979 919.209 394.227C912.377 391.852 905.524 389.533 898.653 387.272C877.905 380.408 856.615 373.942 836.077 366.68C836.33 357.074 835.245 354.579 828.726 347.588Z"/><path fill="#080A0D" transform="matrix(1.39237 0 0 1.39303 -55.6947 -11.1443)" d="M609.669 159.979C635.666 161.452 662.578 164.775 688.498 167.513C693.396 168.031 711.764 170.096 715.189 171.48L715.864 172.264C713.662 178.335 623.948 210.692 612.318 214.575C605.633 206.352 603.643 204.66 592.654 204.602C595.994 183.501 598.088 177.625 609.669 159.979Z"/><path fill="#080A0D" transform="matrix(1.39237 0 0 1.39303 -55.6947 -11.1443)" d="M614.248 710.675C617.783 711.41 620.974 711.504 624.577 711.407C631.946 738.561 639.822 770.559 648.709 796.818C644.11 799.835 641.98 801.674 639.101 806.555C628.033 803.021 617.007 799.359 606.023 795.571C603.201 794.612 595.348 792.247 593.188 791.007C592.483 788.999 592.596 787.624 592.547 785.488C592.303 774.408 592.288 763.325 592.5 752.245C594.55 745.533 610.085 717.016 614.248 710.675Z"/><path fill="#080A0D" transform="matrix(1.39237 0 0 1.39303 -55.6947 -11.1443)" d="M592.432 242.749C596.474 241.79 600.369 241.042 604.441 240.263C617.721 257.605 631.16 279.645 644.622 295.785C639.579 301.584 639.388 303.672 638.501 311.287C623.939 315.736 607.257 319.658 592.378 323.169C593.146 295.761 592.826 270.096 592.432 242.749Z"/><path fill="#080A0D" transform="matrix(1.39237 0 0 1.39303 -55.6947 -11.1443)" d="M614.007 154.391C638.185 127.721 665.819 124.313 699.525 130.683C706.668 138.671 715.989 148.891 722.498 157.294C720.056 159.767 718.842 161.716 717.445 164.932C694.585 163.152 671.76 160.952 648.981 158.332C638.157 157.167 624.571 156.069 614.007 154.391Z"/><path fill="#080A0D" transform="matrix(1.39237 0 0 1.39303 -55.6947 -11.1443)" d="M592.223 540.498C595.89 552.068 600.359 579.968 602.361 593.318C606.231 619.117 612.383 649.965 614.812 675.661C599.959 682.722 596.83 694.85 608.746 706.911C606.97 710.836 594.919 735.637 592.97 737.119L592.269 736.915C593.103 717.14 592.225 692.722 592.249 672.557L592.3 549.854C592.311 546.735 592.285 543.616 592.223 540.498Z"/><path fill="#080A0D" transform="matrix(1.39237 0 0 1.39303 -55.6947 -11.1443)" d="M949.903 655.504C945.95 657.968 928.041 668.382 924.288 664.227C924.319 664.071 924.349 663.916 924.38 663.76C925.832 660.914 929.869 655.244 931.506 652.843C938.951 641.921 973.983 590.084 981.531 585.33C977.978 609.78 969.214 638.758 949.903 655.504Z"/><path fill="#080A0D" transform="matrix(1.39237 0 0 1.39303 -55.6947 -11.1443)" d="M592.803 797.916C599.522 799.554 633.013 809.166 635.518 813.445C635.939 814.164 635.621 814.61 635.445 815.364C630.335 820.872 607.318 823.704 598.666 826.596C595.277 816.423 593.929 808.432 592.803 797.916Z"/><path fill="#080A0D" transform="matrix(1.39237 0 0 1.39303 -55.6947 -11.1443)" d="M726.815 154.519C723.738 150.693 713.136 140.459 712.761 136.425C722.617 141.26 727.415 144.615 736.17 151.665C733.964 152.526 729.255 153.785 726.815 154.519Z"/><path fill="#080A0D" transform="matrix(1.39237 0 0 1.39303 -55.6947 -11.1443)" d="M727.644 188.878C730.86 189.925 736.744 189.641 740.117 189.507C747.839 205.022 755.365 225.525 762.582 241.719C777.969 276.247 792.445 311.652 808.331 345.915C804.521 348.477 803.077 350.257 800.517 353.83C787.676 350.106 774.969 345.932 762.421 341.315C733.842 331.592 704.233 323.009 676.201 313.237C675.913 304.279 674.756 301.754 668.69 295.427C672.732 287.044 679.71 275.732 684.354 267.202C698.445 241.322 714.417 215.13 727.644 188.878Z"/><path fill="#080A0D" transform="matrix(1.39237 0 0 1.39303 -55.6947 -11.1443)" d="M597.515 527.827C601.754 529.668 626.837 564.816 630.963 570.362L675.581 629.805C690.698 650.037 702.72 666.749 719.136 686.212C717.295 688.508 716.431 690.153 715.006 692.681C714.651 693.371 714.356 694.323 713.772 694.457C702.637 696.997 648.121 692.318 639.885 689.988C632.561 680.379 634.804 677.301 620.998 674.391C615.252 641.437 609.467 608.324 604.798 575.196C603.406 565.317 596.47 535.598 597.515 527.827Z"/><path fill="#080A0D" transform="matrix(1.39237 0 0 1.39303 -55.6947 -11.1443)" d="M883.535 684.057C886.141 683.838 889.067 683.743 891.704 683.605C880.987 690.799 869.711 696.691 858.398 702.903L810.459 729.068C765.806 753.445 718.126 780.012 673.069 803.186L672.111 803.497C670.693 803.184 669.676 801.577 668.641 800.368C672.679 792.702 681.334 781.239 686.342 773.548C698.461 754.936 710.726 735.399 723.288 717.127L724.022 717.258C738.576 719.828 748.525 716.386 750.989 700.38C770.215 697.41 789.648 695.528 808.983 693.049C833.666 689.885 858.763 685.891 883.535 684.057Z"/><path fill="#080A0D" transform="matrix(1.39237 0 0 1.39303 -55.6947 -11.1443)" d="M810.437 381.325L817.015 382.21C817.842 393.764 819.944 408.628 821.287 420.375C824.744 449.049 827.914 477.756 830.797 506.494C829.176 507.111 827.603 507.851 826.094 508.707C820.771 511.717 819.052 515.548 817.481 521.034C803.903 521.002 786.133 519.602 772.442 518.542C766.707 518.225 760.969 517.984 755.229 517.819C754.609 510.853 753.044 508.892 748.061 504.267C769.369 463.551 790.163 422.567 810.437 381.325Z"/><path fill="#080A0D" transform="matrix(1.39237 0 0 1.39303 -55.6947 -11.1443)" d="M717.083 179.764C718.212 180.1 722.306 184.48 723.448 185.622C716.317 201.887 704.767 219.203 696.147 234.851C685.512 254.156 675.598 273.015 664.388 292.039C657.771 291.603 655.664 291.332 649.448 293.218C644.369 287.004 640.06 280.895 635.404 274.349C626.942 262.125 618.312 249.384 609.146 237.721C613.479 231.63 614.404 226.869 614.44 219.601C648.48 205.908 683.019 193.55 717.083 179.764Z"/><path fill="#080A0D" transform="matrix(1.39237 0 0 1.39303 -55.6947 -11.1443)" d="M784.5 616.109C793.733 619.567 816.093 631.578 825.553 636.394C838.872 643.202 852.128 650.132 865.321 657.183C869.917 659.623 890.442 669.971 892.086 673.523L891.617 674.55C887.076 678.33 876.903 678.92 870.822 679.732L839.402 683.658L751.047 694.966C748.479 690.24 747.616 688.501 743.235 685.287C750.389 676.133 759.737 658.944 766.077 648.487C770.665 640.92 781.377 623.509 784.5 616.109Z"/><path fill="#080A0D" transform="matrix(1.39237 0 0 1.39303 -55.6947 -11.1443)" d="M828.963 542.43C833.515 543.512 837.149 543.359 841.777 543.197L899.509 661.985C898.067 663.388 896.507 665.114 895.102 666.591L870.732 653.667C843.961 639.785 814.379 625.309 788.272 610.758C792.18 603.437 798.478 593.638 802.823 586.356C811.444 571.659 820.157 557.017 828.963 542.43Z"/><path fill="#080A0D" transform="matrix(1.39237 0 0 1.39303 -55.6947 -11.1443)" d="M639.341 696.631C646.45 696.566 657.6 697.603 665.17 698.072C681.161 699.139 697.158 700.101 713.161 700.957C714.739 706.695 714.973 707.993 718.923 712.589C706.98 731.907 694.661 750.989 681.973 769.827C676.167 779.236 670.128 788.499 663.862 797.609C659.751 796.681 658.361 796.555 654.162 796.454C645.38 768.638 636.237 737.876 630.19 709.593C634.693 704.816 636.574 702.475 639.341 696.631Z"/><path fill="#5FD2C7" transform="matrix(1.39237 0 0 1.39303 -55.6947 -11.1443)" d="M523.062 460.806C525.106 446.69 526.277 426.552 527.296 411.973L531.749 350.353C532.429 340.731 534.328 301.664 539.374 295.444C541.069 294.669 540.213 294.737 542.029 295.269C546.482 299.434 546.705 309.521 546.902 315.356C549.143 389.909 552.535 464.423 557.077 538.872C558.714 569.854 558.793 604.609 561.72 634.941C563.06 625.547 563.608 613.564 564.366 603.877L568.676 550.726C569.756 537.722 570.88 521.704 574.147 509.177C592.423 507.659 614.008 508.746 632.734 508.787L658.273 508.785C663.143 508.763 679.459 506.949 679.58 513.628C678.971 514.921 678.31 516.277 676.896 516.865C671.735 519.008 592.014 517.605 580.773 517.577C580.665 519.912 580.59 523.675 580.317 525.916C578.622 533.795 579.658 543.711 578.909 551.427L578.36 551.59C575.663 564.985 576.157 576.219 574.073 597.22C570.806 630.127 568.419 675.455 563.71 708.839C563.32 711.603 555.41 712.9 554.767 701.893C554.242 692.901 553.944 681.867 553.504 671.937L550.429 603.568C547.295 528.943 543.617 454.342 539.396 379.77C537.653 388.685 536.728 406.976 536.024 416.543C534.209 443.041 532.177 469.523 529.925 495.986C529.131 505.75 527.557 540.355 522.705 546.195C521.132 546.973 521.057 546.824 519.354 546.589C516.356 544.598 505.042 505.18 503.1 498.752C500.797 505.027 498.449 511.531 495.248 517.394C485.578 517.853 430.795 519.51 425.621 514.743C424.952 514.127 425.143 514.008 425.118 513.168C426.237 511.799 429.46 509.928 431.134 509.741C450.533 507.575 470.703 508.452 490.128 508.849C491.64 503.412 493.527 497.607 495.407 492.285C496.91 488.032 499.031 478.879 504.585 479.445C508.278 481.938 510.028 488.6 511.277 492.826C513.901 501.705 516.466 510.313 519.605 519.032C519.352 509.474 520.745 501.823 518.951 492.145C521.586 488.554 520.526 477.602 521.041 473.046C522.31 470.594 523.038 463.679 523.062 460.806Z"/></g></svg>